# xmcd
# 
# Track frame offsets:
#     150
#     14266
#     31401
#     44946
#     56645
#     66409
#     77375
#     100697
#     112280
#     135762
#     163698
#     176783
#     188419
#     214646
#     260750
#     299602
#     321759
# 
# Disc length: 4615
# 
# Revision: 2
# Processed by: cddbd v1.5.2PL0 Copyright (c) Steve Scherf et al.
# Submitted via: fre:ac v1.0.31
# 
DISCID=f9120511
DTITLE=B. B. King - Ladies and Gentlemen...Mr. B.B. King, Disc 2
DYEAR=2012
DGENRE=Blues
TTITLE0=Everyday I Have The Blues 1965
TTITLE1=Sweet Little Angel 1965
TTITLE2=Please Love me 1965
TTITLE3=All Over Again 1965
TTITLE4=Tired of Your Jive 1965
TTITLE5=Cherry Red 1966
TTITLE6=Don't Answer The Door, Pts. 1 and 2 1966
TTITLE7=Night Life 1966
TTITLE8=Gambler's Blues 1967
TTITLE9=Sweet Sixteen, Pts. 1 and 2 1967
TTITLE10=Worried Dream 1968
TTITLE11=Paying The Cost to be The Boss 1968
TTITLE12=Watch Yourself 1968
TTITLE13=Lucille 1968
TTITLE14=Why I Sing The Blues 1969
TTITLE15=Confessin' The Blues 1969
TTITLE16=The Thrill is Gone 1969
EXTD=
EXTT0=
EXTT1=
EXTT2=
EXTT3=
EXTT4=
EXTT5=
EXTT6=
EXTT7=
EXTT8=
EXTT9=
EXTT10=
EXTT11=
EXTT12=
EXTT13=
EXTT14=
EXTT15=
EXTT16=
PLAYORDER=
